# xmcd
#
# Track frame offsets:
#	150
#	17873
#	40227
#	57672
#	73191
#	89633
#	100776
#	119840
#	138601
#	154439
#	173992
#	192321
#	210288
#
# Disc length: 3255 seconds
#
# Revision: 0
# Processed by: cddbd v1.4PL0 Copyright (c) Steve Scherf et al.
# Submitted via: dBpowerAMP V4.0
#
DISCID=ca0cb50d
DTITLE=John Vento and Friends - Reflections of an Average Soul
DYEAR=2001
DGENRE=Country
TTITLE0=Hourglass
TTITLE1=The Day The Lady Cried
TTITLE2=My Best Friend
TTITLE3=Just Don't Care
TTITLE4=Think
TTITLE5=Alaina My Angel
TTITLE6=Grow Up Fast
TTITLE7=Brother
TTITLE8=Can't Take It
TTITLE9=Tell Me
TTITLE10=When The Pieces Fall Into Place
TTITLE11=Sadness
TTITLE12=America's Train
EXTD=music video about Sept. 11 go to www.thedaytheladycried.com after Sept. 5, 2002
EXTT0=
EXTT1=
EXTT2=
EXTT3=
EXTT4=
EXTT5=
EXTT6=
EXTT7=
EXTT8=
EXTT9=
EXTT10=
EXTT11=
EXTT12=
PLAYORDER=
